# xmcd CD database file
#
# Track frame offsets:
#	150
#	26650
#	56950
#	75942
#	107767
#	130050
#	153300
#	173035
#	190150
#	215600
#	238760
#
# Disc length: 3456 seconds
#
# Revision: 0
# Processed by: cddbd v1.5.1PL0 Copyright (c) Steve Scherf et al.
# Submitted via: CDex 1.51
#
DISCID=8e0d7e0b
DTITLE=RED WARRIORS - Red's BOX - The Complete Works of RED WARRIORS 5
DYEAR=1992
DGENRE=Rock
TTITLE0=King's Rock'n' Roll (Live)
TTITLE1=Outlaw Blues (Live)
TTITLE2=Party Is Over (Live)
TTITLE3=Royal Straight Flush R&R (Live)
TTITLE4=Virgin Mary
TTITLE5=Mr. Worman
TTITLE6=Sister
TTITLE7=Dance Macabre
TTITLE8=鏡の前のメリー・アン
TTITLE9=Sweet Red Flower
TTITLE10=灰と蜃気楼
EXTD=YEAR: 1992
EXTT0=
EXTT1=
EXTT2=
EXTT3=
EXTT4=
EXTT5=
EXTT6=
EXTT7=
EXTT8=
EXTT9=
EXTT10=
PLAYORDER=
